<svg xmlns="http://www.w3.org/2000/svg" viewBox="0 0 800 600" width="800" height="600">
  <!-- Background Elements -->
  <rect x="0" y="0" width="800" height="600" fill="#ffffff" opacity="0.01" />
  
  <!-- Abstract Shapes -->
  <circle cx="650" cy="150" r="100" fill="#5E72E4" opacity="0.1" />
  <circle cx="150" cy="450" r="80" fill="#5E72E4" opacity="0.1" />
  
  <!-- Financial Growth Graph -->
  <polyline points="100,400 200,350 300,370 400,280 500,250 600,200 700,150" 
    stroke="#5E72E4" stroke-width="8" fill="none" stroke-linecap="round" stroke-linejoin="round" />
  
  <!-- Graph Points -->
  <circle cx="100" cy="400" r="10" fill="#5E72E4" />
  <circle cx="200" cy="350" r="10" fill="#5E72E4" />
  <circle cx="300" cy="370" r="10" fill="#5E72E4" />
  <circle cx="400" cy="280" r="10" fill="#5E72E4" />
  <circle cx="500" cy="250" r="10" fill="#5E72E4" />
  <circle cx="600" cy="200" r="10" fill="#5E72E4" />
  <circle cx="700" cy="150" r="10" fill="#5E72E4" />
  
  <!-- Coins -->
  <g transform="translate(150, 150)">
    <circle cx="0" cy="0" r="40" fill="#FFD700" />
    <circle cx="0" cy="0" r="35" fill="#FFC800" />
    <text x="0" y="15" text-anchor="middle" font-family="Arial" font-weight="bold" font-size="35" fill="white">$</text>
  </g>
  
  <g transform="translate(620, 300)">
    <circle cx="0" cy="0" r="50" fill="#FFD700" />
    <circle cx="0" cy="0" r="45" fill="#FFC800" />
    <text x="0" y="18" text-anchor="middle" font-family="Arial" font-weight="bold" font-size="45" fill="white">$</text>
  </g>
  
  <g transform="translate(350, 180)">
    <circle cx="0" cy="0" r="30" fill="#FFD700" />
    <circle cx="0" cy="0" r="25" fill="#FFC800" />
    <text x="0" y="10" text-anchor="middle" font-family="Arial" font-weight="bold" font-size="25" fill="white">$</text>
  </g>
  
  <!-- Person managing finances -->
  <g transform="translate(400, 450)">
    <!-- Head -->
    <circle cx="0" cy="-100" r="50" fill="#5E72E4" opacity="0.8" />
    
    <!-- Body -->
    <rect x="-40" y="-50" width="80" height="120" rx="20" fill="#5E72E4" opacity="0.8" />
    
    <!-- Arms -->
    <rect x="-90" y="-30" width="50" height="20" rx="10" fill="#5E72E4" opacity="0.8" />
    <rect x="40" y="-30" width="50" height="20" rx="10" fill="#5E72E4" opacity="0.8" />
    
    <!-- Device/Dashboard -->
    <rect x="-80" y="-10" width="160" height="90" rx="5" fill="#ffffff" stroke="#5E72E4" stroke-width="5" />
    
    <!-- Dashboard Elements -->
    <rect x="-60" y="10" width="50" height="10" rx="2" fill="#5E72E4" opacity="0.5" />
    <rect x="10" y="10" width="30" height="10" rx="2" fill="#5E72E4" opacity="0.5" />
    <rect x="-60" y="30" width="120" height="5" rx="2" fill="#5E72E4" opacity="0.3" />
    <rect x="-60" y="45" width="120" height="5" rx="2" fill="#5E72E4" opacity="0.3" />
    <rect x="-60" y="60" width="80" height="5" rx="2" fill="#5E72E4" opacity="0.3" />
  </g>
</svg>
